<svg width="18" height="18" viewBox="0 0 18 18" fill="none" xmlns="http://www.w3.org/2000/svg">
<path d="M15.875 0.875H2.125C1.79348 0.875 1.47554 1.0067 1.24112 1.24112C1.0067 1.47554 0.875 1.79348 0.875 2.125V15.875C0.875 16.2065 1.0067 16.5245 1.24112 16.7589C1.47554 16.9933 1.79348 17.125 2.125 17.125H15.875C16.2065 17.125 16.5245 16.9933 16.7589 16.7589C16.9933 16.5245 17.125 16.2065 17.125 15.875V2.125C17.125 1.79348 16.9933 1.47554 16.7589 1.24112C16.5245 1.0067 16.2065 0.875 15.875 0.875ZM15.875 15.875H2.125V2.125H15.875V15.875ZM6.5 7.75V12.75C6.5 12.9158 6.43415 13.0747 6.31694 13.1919C6.19973 13.3092 6.04076 13.375 5.875 13.375C5.70924 13.375 5.55027 13.3092 5.43306 13.1919C5.31585 13.0747 5.25 12.9158 5.25 12.75V7.75C5.25 7.58424 5.31585 7.42527 5.43306 7.30806C5.55027 7.19085 5.70924 7.125 5.875 7.125C6.04076 7.125 6.19973 7.19085 6.31694 7.30806C6.43415 7.42527 6.5 7.58424 6.5 7.75ZM13.375 9.9375V12.75C13.375 12.9158 13.3092 13.0747 13.1919 13.1919C13.0747 13.3092 12.9158 13.375 12.75 13.375C12.5842 13.375 12.4253 13.3092 12.3081 13.1919C12.1908 13.0747 12.125 12.9158 12.125 12.75V9.9375C12.125 9.5231 11.9604 9.12567 11.6674 8.83265C11.3743 8.53962 10.9769 8.375 10.5625 8.375C10.1481 8.375 9.75067 8.53962 9.45765 8.83265C9.16462 9.12567 9 9.5231 9 9.9375V12.75C9 12.9158 8.93415 13.0747 8.81694 13.1919C8.69973 13.3092 8.54076 13.375 8.375 13.375C8.20924 13.375 8.05027 13.3092 7.93306 13.1919C7.81585 13.0747 7.75 12.9158 7.75 12.75V7.75C7.75078 7.59691 7.80771 7.44943 7.91001 7.33553C8.01231 7.22164 8.15285 7.14925 8.30498 7.1321C8.45711 7.11495 8.61024 7.15423 8.73533 7.2425C8.86041 7.33076 8.94876 7.46186 8.98359 7.61094C9.4064 7.32412 9.89934 7.15789 10.4095 7.13009C10.9196 7.1023 11.4277 7.21399 11.8792 7.45317C12.3306 7.69236 12.7084 8.05 12.972 8.48769C13.2355 8.92538 13.3748 9.42659 13.375 9.9375ZM6.8125 5.5625C6.8125 5.74792 6.75752 5.92918 6.6545 6.08335C6.55149 6.23752 6.40507 6.35768 6.23377 6.42864C6.06246 6.49959 5.87396 6.51816 5.6921 6.48199C5.51025 6.44581 5.3432 6.35652 5.21209 6.22541C5.08098 6.0943 4.99169 5.92725 4.95551 5.7454C4.91934 5.56354 4.93791 5.37504 5.00886 5.20373C5.07982 5.03243 5.19998 4.88601 5.35415 4.783C5.50832 4.67998 5.68958 4.625 5.875 4.625C6.12364 4.625 6.3621 4.72377 6.53791 4.89959C6.71373 5.0754 6.8125 5.31386 6.8125 5.5625Z" fill="black"/>
</svg>
