<svg width="22" height="22" viewBox="0 0 22 22" fill="none" xmlns="http://www.w3.org/2000/svg">
<path d="M20.3844 13.0513C20.327 12.8911 20.2595 12.7347 20.1824 12.5829L16.6083 4.45153C16.5745 4.37322 16.5261 4.30205 16.4656 4.24185C16.2103 3.98642 15.9071 3.7838 15.5734 3.64556C15.2397 3.50732 14.882 3.43617 14.5209 3.43617C14.1597 3.43617 13.802 3.50732 13.4683 3.64556C13.1346 3.7838 12.8315 3.98642 12.5761 4.24185C12.4476 4.37047 12.3753 4.54474 12.375 4.72653V6.87497H9.625V4.72653C9.62507 4.63622 9.60735 4.54678 9.57284 4.46332C9.53834 4.37986 9.48773 4.30402 9.42391 4.24013C9.16854 3.9847 8.86535 3.78208 8.53167 3.64384C8.19798 3.5056 7.84033 3.43445 7.47914 3.43445C7.11795 3.43445 6.7603 3.5056 6.42662 3.64384C6.09293 3.78208 5.78974 3.9847 5.53438 4.24013C5.47395 4.30033 5.42553 4.3715 5.39172 4.44981L1.81758 12.5812C1.74048 12.7329 1.67303 12.8894 1.61563 13.0496C1.41324 13.6159 1.33712 14.2195 1.39259 14.8183C1.44805 15.4171 1.63377 15.9965 1.93673 16.516C2.23968 17.0354 2.65255 17.4824 3.14641 17.8255C3.64027 18.1686 4.20318 18.3996 4.7957 18.5023C5.38822 18.6049 5.99603 18.5768 6.57654 18.4199C7.15705 18.2629 7.69623 17.981 8.1563 17.5937C8.61638 17.2065 8.98622 16.7233 9.23992 16.1781C9.49363 15.6329 9.62505 15.0388 9.625 14.4375V8.24997H12.375V14.4375C12.3747 15.0389 12.5059 15.6331 12.7594 16.1785C13.013 16.7239 13.3827 17.2072 13.8427 17.5946C14.3027 17.9821 14.8419 18.2642 15.4224 18.4213C16.003 18.5784 16.6108 18.6067 17.2035 18.5041C17.7961 18.4016 18.3591 18.1707 18.8531 17.8276C19.347 17.4845 19.76 17.0376 20.0631 16.5181C20.3661 15.9986 20.5519 15.4191 20.6074 14.8202C20.6629 14.2214 20.5868 13.6176 20.3844 13.0513ZM6.59227 5.13474C6.82148 4.94174 7.10746 4.8289 7.4067 4.81339C7.70594 4.79788 8.00206 4.88054 8.25 5.0488V11.3661C7.71324 10.8841 7.05923 10.5516 6.35351 10.402C5.6478 10.2524 4.91515 10.2909 4.22898 10.5136L6.59227 5.13474ZM5.5 17.1875C4.9561 17.1875 4.42442 17.0262 3.97218 16.724C3.51995 16.4218 3.16747 15.9923 2.95933 15.4898C2.75119 14.9874 2.69673 14.4344 2.80284 13.901C2.90895 13.3675 3.17086 12.8775 3.55546 12.4929C3.94005 12.1083 4.43005 11.8464 4.9635 11.7403C5.49695 11.6342 6.04988 11.6887 6.55238 11.8968C7.05488 12.1049 7.48437 12.4574 7.78654 12.9097C8.08872 13.3619 8.25 13.8936 8.25 14.4375C8.25 15.1668 7.96027 15.8663 7.44454 16.382C6.92882 16.8977 6.22935 17.1875 5.5 17.1875ZM13.75 5.04794C13.9979 4.87968 14.2941 4.79702 14.5933 4.81253C14.8925 4.82804 15.1785 4.94088 15.4077 5.13388L17.771 10.5118C17.0848 10.2893 16.3521 10.2509 15.6464 10.4007C14.9406 10.5505 14.2867 10.8831 13.75 11.3652V5.04794ZM16.5 17.1875C15.9561 17.1875 15.4244 17.0262 14.9722 16.724C14.5199 16.4218 14.1675 15.9923 13.9593 15.4898C13.7512 14.9874 13.6967 14.4344 13.8028 13.901C13.9089 13.3675 14.1709 12.8775 14.5555 12.4929C14.9401 12.1083 15.4301 11.8464 15.9635 11.7403C16.4969 11.6342 17.0499 11.6887 17.5524 11.8968C18.0549 12.1049 18.4844 12.4574 18.7865 12.9097C19.0887 13.3619 19.25 13.8936 19.25 14.4375C19.25 15.1668 18.9603 15.8663 18.4445 16.382C17.9288 16.8977 17.2293 17.1875 16.5 17.1875Z" fill="#7C5AED"/>
</svg>
