<svg width="22" height="22" viewBox="0 0 22 22" fill="none" xmlns="http://www.w3.org/2000/svg">
<path d="M19.0669 7.14654C20.0209 9.14184 20.202 11.4198 19.5753 13.5408C18.9485 15.6618 17.5583 17.4754 15.673 18.6317C13.7877 19.7879 11.5409 20.2048 9.36625 19.802C7.19161 19.3991 5.24329 18.2049 3.89731 16.45C2.55133 14.6951 1.90311 12.5038 2.07776 10.2991C2.2524 8.09436 3.23754 6.03246 4.84302 4.51135C6.44851 2.99024 8.56054 2.11775 10.7715 2.06227C12.9824 2.00678 15.1356 2.77224 16.8153 4.21091L18.7635 2.26185C18.8925 2.13285 19.0675 2.06037 19.2499 2.06037C19.4324 2.06037 19.6073 2.13285 19.7363 2.26185C19.8653 2.39085 19.9378 2.56582 19.9378 2.74826C19.9378 2.93069 19.8653 3.10566 19.7363 3.23466L11.4863 11.4847C11.3573 11.6137 11.1824 11.6861 10.9999 11.6861C10.8175 11.6861 10.6425 11.6137 10.5135 11.4847C10.3845 11.3557 10.3121 11.1807 10.3121 10.9983C10.3121 10.8158 10.3845 10.6409 10.5135 10.5119L12.8957 8.12966C12.2501 7.70269 11.4793 7.50609 10.7081 7.57171C9.93683 7.63733 9.21031 7.96131 8.64612 8.49122C8.08193 9.02113 7.71309 9.72594 7.59932 10.4916C7.48554 11.2572 7.63349 12.0388 8.01921 12.7098C8.40493 13.3809 9.00584 13.9022 9.72467 14.1892C10.4435 14.4763 11.2382 14.5123 11.98 14.2915C12.7219 14.0707 13.3675 13.606 13.8124 12.9726C14.2573 12.3392 14.4754 11.5742 14.4314 10.8015C14.4263 10.7112 14.4391 10.6208 14.469 10.5354C14.4988 10.4501 14.5452 10.3714 14.6054 10.304C14.6657 10.2366 14.7386 10.1817 14.8201 10.1424C14.9016 10.1032 14.99 10.0804 15.0802 10.0753C15.2626 10.065 15.4415 10.1276 15.5777 10.2493C15.6451 10.3096 15.7 10.3825 15.7393 10.464C15.7785 10.5454 15.8013 10.6338 15.8064 10.7241C15.8691 11.8179 15.5567 12.9004 14.9208 13.7925C14.285 14.6847 13.3637 15.3332 12.3093 15.6309C11.255 15.9286 10.1306 15.8576 9.12202 15.4296C8.11347 15.0017 7.28112 14.2424 6.76254 13.2773C6.24397 12.3122 6.07021 11.1991 6.26999 10.1219C6.46977 9.04467 7.03112 8.06785 7.86127 7.3529C8.69142 6.63794 9.74068 6.22764 10.8356 6.18981C11.9305 6.15197 13.0056 6.48887 13.8831 7.14482L15.8382 5.18974C14.4055 4.00019 12.5837 3.38193 10.7229 3.4537C8.8621 3.52547 7.09341 4.28221 5.75654 5.57858C4.41966 6.87495 3.60889 8.61954 3.47993 10.4773C3.35097 12.335 3.91291 14.1749 5.05784 15.6435C6.20276 17.1122 7.84994 18.1061 9.68299 18.4342C11.516 18.7624 13.4057 18.4018 14.9891 17.4216C16.5725 16.4415 17.7379 14.9109 18.2615 13.1238C18.7851 11.3367 18.63 9.41919 17.826 7.73951C17.7473 7.57495 17.7373 7.38589 17.798 7.21393C17.8588 7.04197 17.9854 6.90119 18.1499 6.82255C18.3145 6.74392 18.5036 6.73388 18.6755 6.79464C18.8475 6.8554 18.9883 6.98198 19.0669 7.14654Z" fill="#7C5AED"/>
</svg>
